<?xml version="1.0" encoding="UTF-8"?>
<svg xmlns="http://www.w3.org/2000/svg" viewBox="0 0 64 64" width="512" height="512"><g id="Ikon"><path d="M26,48a1,1,0,0,1-1,1H19a1,1,0,0,1,0-2h6A1,1,0,0,1,26,48Zm-1,2H19a1,1,0,0,0,0,2h6a1,1,0,0,0,0-2Zm37,6.5A2.5026,2.5026,0,0,1,59.5,59H4.5A2.4916,2.4916,0,0,1,3,54.5126V8A3,3,0,0,1,6,5h4a3,3,0,0,1,3,3V54h1.1843A2.966,2.966,0,0,1,14,53V31a2.9817,2.9817,0,0,1,1-2.22V19a3,3,0,0,1,3-3h4a3,3,0,0,1,3,3v9h2V15a3,3,0,0,1,3-3h4a3,3,0,0,1,3,3V28h2V23a3,3,0,0,1,3-3h4a3,3,0,0,1,3,3V54h2V9a3,3,0,0,1,3-3h4a3,3,0,0,1,3,3V54.5126A2.4891,2.4891,0,0,1,62,56.5ZM53,54h6V9a1,1,0,0,0-1-1H54a1,1,0,0,0-1,1ZM41,28.78A2.9817,2.9817,0,0,1,42,31V53a2.9635,2.9635,0,0,1-.1843,1H47V23a1,1,0,0,0-1-1H42a1,1,0,0,0-1,1ZM39,30H33V40.3818a2,2,0,0,1-2.8945,1.7891L28,41.1182l-2.1055,1.0527A2,2,0,0,1,23,40.3818V30H17a1.0009,1.0009,0,0,0-1,1V53a1.0009,1.0009,0,0,0,1,1H39a1.0009,1.0009,0,0,0,1-1V31A1.0009,1.0009,0,0,0,39,30Zm-8,0H25V40.3818l2.5528-1.2764a1,1,0,0,1,.8945,0L31,40.3818l.0044.002Zm-2-2h6V15a1,1,0,0,0-1-1H30a1,1,0,0,0-1,1ZM17,28h6V19a1,1,0,0,0-1-1H18a1,1,0,0,0-1,1ZM5,54h6V8a1,1,0,0,0-1-1H6A1,1,0,0,0,5,8Zm55,2.5a.5006.5006,0,0,0-.5-.5H4.5a.5.5,0,0,0,0,1h55A.5006.5006,0,0,0,60,56.5Z"/></g></svg>
