<svg id="Layer_1_1_" enable-background="new 0 0 64 64" height="48" viewBox="0 0 64 64" width="48" xmlns="http://www.w3.org/2000/svg" fill="#ffffff">
    <path d="m44 62h16c.552 0 1-.448 1-1v-16c0-.552-.448-1-1-1h-16c-.552 0-1 .448-1 1v16c0 .552.448 1 1 1zm7-16h2v4h-2zm-6 0h4v5c0 .552.448 1 1 1h4c.552 0 1-.448 1-1v-5h4v14h-14z"/><path d="m4 62h16c.552 0 1-.448 1-1v-16c0-.552-.448-1-1-1h-16c-.552 0-1 .448-1 1v16c0 .552.448 1 1 1zm7-16h2v4h-2zm-6 0h4v5c0 .552.448 1 1 1h4c.552 0 1-.448 1-1v-5h4v14h-14z"/><path d="m14.192 21.241-.437 1.952c.583.13 1.152.327 1.691.585l.863-1.804c-.675-.323-1.387-.569-2.117-.733z"/><path d="m11.969 21c-.75.002-1.498.088-2.223.255l.449 1.949c.58-.134 1.178-.203 1.779-.204z"/><path d="m18.208 23.16-1.242 1.567c.469.372.896.796 1.271 1.262l1.559-1.254c-.469-.581-1.003-1.111-1.588-1.575z"/><path d="m19.794 29.188 1.948-.453c-.169-.729-.421-1.438-.748-2.11l-1.798.876c.262.537.463 1.104.598 1.687z"/><path d="m12.01 41c.749 0 1.497-.084 2.224-.25l-.445-1.95c-.581.133-1.179.2-1.778.2v2z"/><path d="m9.787 40.754.441-1.951c-.583-.131-1.151-.33-1.69-.589l-.867 1.802c.675.325 1.387.573 2.116.738z"/><path d="m15.477 38.208.87 1.801c.671-.324 1.308-.726 1.893-1.193l-1.249-1.562c-.469.373-.978.695-1.514.954z"/><path d="m5.744 23.198 1.252 1.56c.467-.375.976-.697 1.513-.958l-.874-1.8c-.672.327-1.308.729-1.891 1.198z"/><path d="m4.796 34.483c-.261-.538-.461-1.105-.594-1.687l-1.949.446c.167.729.417 1.44.744 2.114z"/><path d="m5.732 26.028-1.565-1.244c-.467.586-.866 1.225-1.189 1.898l1.804.864c.258-.538.577-1.049.95-1.518z"/><path d="m5.775 38.827 1.246-1.564c-.468-.373-.895-.798-1.269-1.265l-1.561 1.25c.468.583 1 1.114 1.584 1.579z"/><path d="m2 31v.019l2-.019c0-.596.065-1.189.195-1.764l-1.951-.438c-.162.718-.244 1.459-.244 2.202z"/><path d="m22 30.971-.331-.003-1.669.032c0 .601-.067 1.2-.198 1.78l1.95.442c.165-.724.248-1.472.248-2.251z"/><path d="m18.257 35.985 1.563 1.247c.467-.585.868-1.223 1.192-1.895l-1.802-.868c-.258.538-.579 1.048-.953 1.516z"/><path d="m20.197 11.822 1.967.36c.111-.604.279-1.202.5-1.774l-1.867-.718c-.265.688-.467 1.405-.6 2.132z"/><path d="m37.313 3.238-.887 1.793c.55.271 1.078.597 1.571.967l1.201-1.6c-.59-.443-1.225-.834-1.885-1.16z"/><path d="m38.031 21.977 1.207 1.595c.588-.445 1.138-.947 1.634-1.492l-1.479-1.347c-.414.454-.872.873-1.362 1.244z"/><path d="m33.118 25.949-.185-1.991c-.302.027-.608.042-.919.042-.314-.003-.621-.014-.925-.041l-.183 1.991c.366.033.712.043 1.11.05.371 0 .739-.018 1.102-.051z"/><path d="m41.832 15.838 1.967.365c.133-.722.201-1.463.201-2.172v-.077l-2 .046c0 .618-.057 1.236-.168 1.838z"/><path d="m41.313 10.35c.224.572.396 1.168.511 1.772l1.965-.374c-.138-.726-.345-1.441-.614-2.127z"/><path d="m39.366 7.236c.417.454.793.948 1.119 1.468l1.695-1.061c-.39-.625-.842-1.217-1.341-1.76z"/><path d="m26.664 24.751c.66.328 1.355.597 2.066.798l.544-1.925c-.592-.167-1.17-.391-1.72-.664z"/><path d="m21.781 7.706 1.702 1.051c.323-.523.696-1.019 1.11-1.475l-1.481-1.344c-.496.546-.944 1.141-1.331 1.768z"/>
    <path d="m22.679 17.63-1.863.727c.267.685.601 1.351.991 1.979l1.698-1.057c-.326-.524-.604-1.078-.826-1.649z"/>
    <path d="m24.742 4.443 1.211 1.592c.491-.373 1.017-.702 1.564-.976l-.896-1.788c-.658.33-1.29.724-1.879 1.172z"/>
    <path d="m20.207 16.228 1.966-.369c-.113-.602-.171-1.22-.172-1.837l-2 .004c0 .739.07 1.48.206 2.202z"/>
    <path d="m23.144 22.099c.498.544 1.049 1.045 1.637 1.488l1.204-1.597c-.491-.37-.95-.788-1.366-1.242z"/><path d="m34.746 23.618.548 1.924c.709-.202 1.403-.472 2.064-.802l-.894-1.789c-.55.275-1.128.499-1.718.667z"/>
    <path d="m43.194 18.333-1.865-.723c-.222.573-.499 1.128-.822 1.65l1.699 1.055c.389-.627.721-1.294.988-1.982z"/>
    <path d="m35.245 2.444c-.71-.199-1.442-.333-2.177-.397l-.176 1.992c.612.054 1.222.166 1.814.331z"/>
    <path d="m30.857 2.054c-.736.069-1.468.208-2.176.411l.553 1.922c.588-.169 1.198-.284 1.811-.342z"/>
    <path d="m44.796 34.483c-.261-.538-.461-1.105-.594-1.687l-1.949.446c.167.729.417 1.44.744 2.114z"/>
    <path d="m45.775 38.827 1.246-1.564c-.468-.373-.895-.798-1.269-1.265l-1.561 1.25c.468.583 1 1.114 1.584 1.579z"/>
    <path d="m51.969 21c-.75.002-1.498.088-2.223.255l.449 1.949c.58-.134 1.178-.203 1.779-.204z"/>
    <path d="m44.782 27.546c.258-.538.578-1.049.95-1.518l-1.565-1.244c-.466.586-.866 1.225-1.188 1.898z"/>
    <path d="m62 30.971-.331-.003-1.669.032c0 .601-.067 1.2-.198 1.78l1.95.442c.165-.724.248-1.472.248-2.251z"/>
    <path d="m44.195 29.236-1.951-.438c-.162.718-.244 1.459-.244 2.202v.019l2-.019c0-.596.065-1.189.195-1.764z"/>
    <path d="m59.211 34.469c-.259.538-.58 1.048-.954 1.516l1.563 1.247c.467-.585.868-1.223 1.192-1.895z"/>
    <path d="m55.477 38.208.87 1.801c.671-.324 1.308-.726 1.893-1.193l-1.249-1.562c-.469.373-.978.695-1.514.954z"/>
    <path d="m45.744 23.198 1.252 1.56c.467-.375.976-.697 1.513-.958l-.874-1.8c-.672.327-1.308.729-1.891 1.198z"/>
    <path d="m61.742 28.735c-.169-.729-.421-1.438-.748-2.11l-1.798.876c.261.537.462 1.104.598 1.687z"/>
    <path d="m54.192 21.241-.437 1.952c.583.13 1.152.327 1.691.585l.863-1.804c-.675-.323-1.387-.569-2.117-.733z"/>
    <path d="m58.208 23.16-1.242 1.567c.469.372.896.796 1.271 1.262l1.559-1.254c-.469-.581-1.003-1.111-1.588-1.575z"/>
    <path d="m49.787 40.754.441-1.951c-.583-.131-1.151-.33-1.69-.589l-.867 1.802c.675.325 1.387.573 2.116.738z"/>
    <path d="m52.01 41c.749 0 1.497-.084 2.224-.25l-.445-1.95c-.581.133-1.179.2-1.778.2v2z"/>
    <path d="m25.052 11.266c-.119.355-.029.748.232 1.016l2.647 2.713-.626 3.844c-.062.378.098.758.411.979s.724.243 1.06.058l3.224-1.783 3.224 1.782c.151.083.318.125.484.125.202 0 .404-.062.576-.183.313-.22.473-.601.411-.979l-.626-3.844 2.647-2.713c.262-.268.352-.66.232-1.016s-.427-.615-.797-.671l-3.618-.552-1.627-3.467c-.165-.351-.518-.575-.906-.575s-.741.224-.905.575l-1.627 3.467-3.618.552c-.371.057-.679.317-.798.672zm5.245.673c.33-.051.613-.262.754-.564l.949-2.021.949 2.021c.142.302.425.513.754.564l2.222.339-1.641 1.682c-.222.227-.322.546-.271.859l.376 2.309-1.906-1.053c-.15-.083-.317-.125-.484-.125s-.333.042-.484.125l-1.906 1.053.376-2.309c.051-.313-.049-.632-.271-.859l-1.641-1.682z"/>
    <path d="m7.149 34.526c.183.294.504.474.851.474h8c.347 0 .668-.18.851-.474.182-.295.199-.663.044-.973l-4-8c-.339-.678-1.45-.678-1.789 0l-4 8c-.155.31-.139.678.043.973zm4.851-6.29 2.382 4.764h-4.764z"/>
    <path d="m46 31c0 3.309 2.691 6 6 6s6-2.691 6-6-2.691-6-6-6-6 2.691-6 6zm6-4c2.206 0 4 1.794 4 4s-1.794 4-4 4-4-1.794-4-4 1.794-4 4-4z"/>
    <path d="m41 61v-16c0-.552-.448-1-1-1h-16c-.552 0-1 .448-1 1v16c0 .552.448 1 1 1h16c.552 0 1-.448 1-1zm-10-15h2v4h-2zm8 14h-14v-14h4v5c0 .552.448 1 1 1h4c.552 0 1-.448 1-1v-5h4z"/>
    <path d="m34 29h-2c0 .561-.217.801-.707 1.291-.545.545-1.293 1.292-1.293 2.705 0 1.415.747 2.162 1.292 2.708.491.49.708.731.708 1.294 0 .562-.217.803-.708 1.294-.545.546-1.292 1.293-1.292 2.708h2c0-.562.217-.803.708-1.294.545-.546 1.292-1.293 1.292-2.708s-.747-2.163-1.293-2.708c-.49-.491-.707-.732-.707-1.294 0-.561.217-.801.707-1.29.545-.546 1.293-1.292 1.293-2.706z" fill="#ffffff"/>
</svg>