<svg xmlns="http://www.w3.org/2000/svg" width="15.186" height="14.999" viewBox="0 0 15.186 14.999">
  <g id="close" transform="translate(0.609 -1.261)">
    <g id="close_1_" transform="translate(0.001 1.844)">
      <path id="Path_30773" data-name="Path 30773" d="M1.335,16.35a1.333,1.333,0,0,1-.947-.32,1.333,1.333,0,0,1,0-1.88l11.32-11.32a1.333,1.333,0,0,1,1.947,1.813L2.268,16.03a1.333,1.333,0,0,1-.933.32Z" transform="translate(-0.001 -2.443)" fill="#ff7757" stroke="#fff" stroke-width="1"/>
      <path id="Path_30774" data-name="Path 30774" d="M14.1,15.751a1.333,1.333,0,0,1-.933-.387L1.849,4.045a1.333,1.333,0,0,1,1.88-1.88l11.386,11.32a1.333,1.333,0,0,1,.062,1.885q-.03.032-.062.062a1.333,1.333,0,0,1-1.013.32Z" transform="translate(-1.461 -1.844)" fill="#ff7757" stroke="#fff" stroke-width="1"/>
    </g>
  </g>
</svg>
