<svg version="1.1" id="Layer_1" xmlns="http://www.w3.org/2000/svg" x="0px" y="0px"
	 viewBox="0 0 512 512" width="40" height="40">
<g>
	<g>
		<path d="M84.73,389.299c-13.416,0-24.332,10.915-24.332,24.333c0,13.416,10.915,24.332,24.332,24.332s24.332-10.915,24.332-24.332
			C109.062,400.215,98.147,389.299,84.73,389.299z M84.73,422.757c-5.031,0-9.124-4.093-9.124-9.124
			c0-5.032,4.093-9.125,9.124-9.125c5.031,0,9.124,4.093,9.124,9.125C93.854,418.664,89.761,422.757,84.73,422.757z"/>
	</g>
</g>
<g>
	<g>
		<path d="M504.396,406.029h-48.61c-4.2,0-7.604,3.405-7.604,7.604s3.404,7.604,7.604,7.604h41.006v44.103H15.208v-44.103h25.375
			c2.486,22.211,21.371,39.538,44.235,39.538s41.749-17.327,44.235-39.538h301.387c4.2,0,7.604-3.405,7.604-7.604
			s-3.404-7.604-7.604-7.604H129.338v-50.586l28.367-28.367l1.528,15.463c0.21,2.121,1.3,4.056,3.005,5.336
			c1.705,1.279,3.869,1.782,5.964,1.39l24.948-4.681l9.531,23.526c0.801,1.977,2.395,3.526,4.393,4.27
			c1.997,0.744,4.218,0.615,6.117-0.356l22.595-11.556l15.781,19.874c1.325,1.669,3.29,2.705,5.415,2.856
			c0.18,0.013,0.36,0.019,0.539,0.019c1.936,0,3.809-0.739,5.224-2.079l18.435-17.435l20.719,14.65
			c1.742,1.231,3.919,1.674,6.001,1.223c2.083-0.451,3.881-1.756,4.956-3.597l12.797-21.919l24.018,8.207
			c2.018,0.689,4.234,0.501,6.104-0.523c1.873-1.023,3.228-2.785,3.738-4.856l6.061-24.644l25.352,1.086
			c2.147,0.094,4.197-0.715,5.703-2.22c1.506-1.506,2.311-3.574,2.219-5.702l-1.086-25.352l24.644-6.062
			c2.071-0.509,3.833-1.865,4.856-3.737c1.023-1.872,1.213-4.087,0.523-6.106l-8.206-24.019l21.919-12.797
			c1.84-1.075,3.147-2.872,3.598-4.956c0.451-2.083,0.008-4.26-1.223-6.001l-14.65-20.718l17.436-18.435
			c1.463-1.548,2.211-3.64,2.06-5.766c-0.151-2.125-1.188-4.09-2.856-5.415l-19.874-15.781l11.556-22.594
			c0.97-1.899,1.1-4.118,0.356-6.117c-0.744-1.998-2.294-3.592-4.27-4.393l-23.526-9.531l4.68-24.947
			c0.393-2.095-0.111-4.258-1.39-5.964c-1.279-1.705-3.214-2.795-5.336-3.005l-15.462-1.528l42.05-42.05
			c2.97-2.97,2.97-7.784,0-10.753l-23.395-23.395c-2.971-2.97-7.784-2.97-10.754,0l-17.958,17.958
			c-37.855-25.103-83.41-36.908-129.035-33.28C205.188,4.5,159.676,25.517,125.354,59.839
			c-34.322,34.322-55.339,79.834-59.177,128.153c-3.625,45.622,8.178,91.181,33.28,129.035L42.523,373.96
			c-1.427,1.425-2.227,3.36-2.227,5.376v26.692H7.604c-4.199,0-7.604,3.405-7.604,7.604v59.311c0,4.199,3.405,7.604,7.604,7.604
			h21.809v23.827c0,4.199,3.405,7.604,7.604,7.604h50.184c4.199,0,7.604-3.405,7.604-7.604v-23.827h322.391v23.827
			c0,4.199,3.404,7.604,7.604,7.604h50.184c4.2,0,7.604-3.405,7.604-7.604v-23.827h21.808c4.2,0,7.604-3.405,7.604-7.604v-59.311
			C512,409.433,508.596,406.029,504.396,406.029z M398.312,108.029l-4.298,22.907c-0.667,3.557,1.264,7.091,4.618,8.45l21.596,8.75
			l-10.612,20.747c-1.649,3.224-0.795,7.165,2.042,9.418l18.258,14.497l-16.021,16.939c-2.489,2.633-2.776,6.656-0.684,9.615
			l13.458,19.032l-20.129,11.752c-3.126,1.825-4.533,5.601-3.361,9.025l7.534,22.047l-22.626,5.566
			c-3.518,0.865-5.936,4.091-5.781,7.709l0.998,23.297l-23.296-0.998c-3.622-0.151-6.846,2.264-7.709,5.781l-5.564,22.626
			l-22.048-7.534c-3.425-1.171-7.2,0.236-9.024,3.362l-11.752,20.128l-19.032-13.458c-2.959-2.092-6.983-1.805-9.614,0.684
			l-16.938,16.02l-14.498-18.257c-2.252-2.837-6.193-3.689-9.418-2.041l-20.748,10.611l-8.75-21.595
			c-1.359-3.354-4.894-5.282-8.45-4.618l-22.908,4.298l-1.938-19.62l69.73-69.73c8.208,5.981,18.058,9.217,28.408,9.217
			c12.924,0,25.073-5.032,34.211-14.171c17.033-17.034,18.679-43.712,4.951-62.616l69.777-69.777L398.312,108.029z M252.296,232.486
			l45.661-45.661c7.911,12.788,6.335,29.823-4.748,40.906c-6.266,6.266-14.596,9.716-23.457,9.716
			C263.486,237.447,257.489,235.713,252.296,232.486z M55.505,382.486l127.794-127.794c2.97-2.97,2.97-7.784,0-10.753
			c-2.97-2.97-7.784-2.97-10.753,0l-62.102,62.102c-22.072-34.508-32.38-75.645-29.107-116.844
			c3.553-44.716,23.003-86.837,54.77-118.605c31.766-31.767,73.888-51.218,118.604-54.77c41.206-3.27,82.339,7.036,116.845,29.107
			L192.315,224.169c-2.97,2.97-2.97,7.784,0,10.753c2.97,2.97,7.784,2.97,10.753,0L405.877,32.115l12.642,12.642L116.358,346.918
			c-1.427,1.425-2.227,3.36-2.227,5.376v63.959c0,16.163-13.15,29.313-29.313,29.313s-29.313-13.15-29.313-29.313V382.486z
			 M79.597,496.77L79.597,496.77H44.621v-16.223h34.976V496.77z M467.379,496.77h-34.976v-16.223h34.976V496.77z"/>
	</g>
</g>
<g>
</g>
<g>
</g>
<g>
</g>
<g>
</g>
<g>
</g>
<g>
</g>
<g>
</g>
<g>
</g>
<g>
</g>
<g>
</g>
<g>
</g>
<g>
</g>
<g>
</g>
<g>
</g>
<g>
</g>
</svg>
