<svg id="Layer_1" viewBox="0 0 512 512" xmlns="http://www.w3.org/2000/svg" data-name="Layer 1" width="42" height="42">
    <path d="m507.687 313.193c-6.842-14.145-21.832-25.834-40.7-23.161v-68.1a22.381 22.381 0 0 0 -22.37-22.341h-49.871l23.3-86.948 2.9.777a7 7 0 0 0 8.759-5.879l8.535-66.993a7 7 0 0 0 -5.132-7.649l-20.5-5.5a7 7 0 0 0 -8.273 4.057l-26.109 62.285a7 7 0 0 0 4.646 9.471l2.909.78-25.608 95.6h-24.536v-58.809a56.058 56.058 0 0 0 -3.19-100.645 7 7 0 0 0 -9.881 6.383v47.387l-13.129 7.581-13.152-7.584v-47.384a7 7 0 0 0 -9.881-6.383 56.05 56.05 0 0 0 -3.161 100.648v58.8h-51.074l-27.413-102.286c-.941-3.514-.83-5.359 4.238-6.972l9.041-2.419a12.663 12.663 0 0 0 2.723 2.111 12.439 12.439 0 0 0 9.527 1.254l14.578-3.913a12.576 12.576 0 0 0 8.883-15.381l-12.532-46.7a12.571 12.571 0 0 0 -15.371-8.859l-14.59 3.889a12.582 12.582 0 0 0 -9.1 10.012l-2.927.766a27.307 27.307 0 0 0 -18.05-4.385 6.956 6.956 0 0 0 -1.189.212c-3.054.82-6.85 1.734-10.867 2.7-12.473 3-26.609 6.409-35.052 10.688-28.954 14.685-44.938 41.264-47.507 79a7 7 0 0 0 13.1 3.9c7.846-14.007 24.1-23.711 39.634-23.711h.39c5.734.06 16.075 1.666 21.773 11.609l23.725 88.484h-54.95a22.367 22.367 0 0 0 -22.341 22.341v65.087l-23.647 8.987-2.92-9.857a17.97 17.97 0 0 0 -22.283-12.1l-46.185 13.666-.018.006a18.021 18.021 0 0 0 -12.109 22.306l51.321 173.157a17.994 17.994 0 0 0 17.2 12.83 17.809 17.809 0 0 0 5.1-.749l46.181-13.665a17.951 17.951 0 0 0 12.1-22.286l-4.888-16.508 11.566-2.5c24.789-5.359 43.072 4.655 62.428 15.257 16.8 9.2 35.249 19.309 59.032 19.308a93.434 93.434 0 0 0 27.23-4.228c29.113-8.815 65.765-29.278 112.167-55.185 26.781-14.954 57.136-31.9 90.667-49.139l.1-.055c22.118-11.847 25.166-35.658 16.753-53.065zm-92.798-270.683 8.686 2.331-6.75 52.973-22.582-6.054zm-15.581 65.108 5.21 1.4-24.272 90.574h-5.574zm-106.323 22.3a42.034 42.034 0 0 1 -10.706-70.772v38.8a7 7 0 0 0 3.5 6.066l20.157 11.624a7 7 0 0 0 7 0l20.13-11.624a7 7 0 0 0 3.5-6.064v-38.8a42.044 42.044 0 0 1 -10.68 70.774 7 7 0 0 0 -4.261 6.443v63.223h-24.376v-63.222a7 7 0 0 0 -4.264-6.445zm-153.157-44.427a59.686 59.686 0 0 0 -35.535 11.94c5.781-20.605 17.714-35.3 36.109-44.635 6.98-3.538 20.852-6.878 32-9.562 3.842-.925 7.486-1.8 10.585-2.623a13.371 13.371 0 0 1 10.128 3.4 7 7 0 0 0 6.371 1.492l11.908-3.119a7 7 0 0 0 4.992-8.577l-.091-.341 11.774-3.138 11.777 43.884-11.818 3.168a7 7 0 0 0 -8.4-4.395l-14.4 3.855c-.093.025-.185.052-.276.08-9.131 2.85-14.234 8.991-14.549 17l-20.12 5.392c-7.063-8.723-17.816-13.688-30.455-13.821zm36.423 26.722 16.8-4.5 24.623 91.878h-17.995zm-46.018 101.387h314.385a8.358 8.358 0 0 1 8.364 8.334v7.366h-331.082v-7.37a8.343 8.343 0 0 1 8.333-8.33zm-8.333 29.707h331.082v51.1l-126.234 54.017c-2.737-15-11.766-28.332-24.628-35.555-104-58.327-105.995-59.445-161.629-38.237l-18.591 7.068zm-3.02 222.963a3.89 3.89 0 0 1 -2.313 1.893l-46.2 13.672a3.942 3.942 0 0 1 -4.89-2.652l-51.315-173.127a3.983 3.983 0 0 1 2.683-4.921l46.169-13.661a3.967 3.967 0 0 1 4.886 2.646l51.313 173.163a3.925 3.925 0 0 1 -.334 2.987zm365.493-112.386c-33.724 17.338-64.174 34.34-91.039 49.339-45.664 25.5-81.733 45.634-109.4 54.01-32.194 9.747-53.216-1.768-75.472-13.958-20.754-11.368-42.215-23.125-72.11-16.663l-12.6 2.716-35.517-119.861 57.245-21.748c25.671-9.786 37.387-14.251 54.741-10.042 18.541 4.5 44.11 18.839 95.045 47.4 11.166 6.272 18.537 19.727 18.342 33.482-.172 11.423-5.9 21.754-14.95 26.964-7.8 4.486-16.8 4.316-25.341-.477l-67.617-37.93a7 7 0 1 0 -6.852 12.215l67.617 37.934a41.356 41.356 0 0 0 20.265 5.506 37.705 37.705 0 0 0 18.915-5.106c12.029-6.924 20.04-19.774 21.652-34.242l133.717-57.217c15.834-6.871 28.52 1.622 34.065 13.084 5.512 11.397 4.334 26.51-10.706 34.594z"/>
</svg>