<svg xmlns="http://www.w3.org/2000/svg" width="23.37" height="19.121" viewBox="0 0 23.37 19.121">
  <g id="Icon_feather-mail" data-name="Icon feather-mail" transform="translate(-1.5 -4.5)">
    <path id="Path_30712" data-name="Path 30712" d="M4.687,4.5h17A3.19,3.19,0,0,1,24.87,7.687V20.434a3.19,3.19,0,0,1-3.187,3.187h-17A3.19,3.19,0,0,1,1.5,20.434V7.687A3.19,3.19,0,0,1,4.687,4.5Zm17,17a1.063,1.063,0,0,0,1.062-1.062V7.687a1.063,1.063,0,0,0-1.062-1.062h-17A1.063,1.063,0,0,0,3.625,7.687V20.434A1.063,1.063,0,0,0,4.687,21.5Z" transform="translate(0)" fill="#fff"/>
    <path id="Path_30713" data-name="Path 30713" d="M13.185,17.061a1.061,1.061,0,0,1-.609-.192L1.953,9.433A1.062,1.062,0,1,1,3.171,7.692L13.185,14.7,23.2,7.692a1.062,1.062,0,1,1,1.218,1.741L13.794,16.869A1.061,1.061,0,0,1,13.185,17.061Z" transform="translate(0 -0.875)" fill="#fff"/>
  </g>
</svg>
