<svg id="Layer_1" height="40" viewBox="0 0 66 66" width="40" xmlns="http://www.w3.org/2000/svg">
    <g>
        <path d="m1.8 12.3c0 .4.3.8.8.8h11.6v-1.5h-11.7c-.4 0-.7.3-.7.7z"/><path d="m45.6 9.1h8.6c1.3 0 2.4-.9 2.8-2.1h-14.1c.3 1.2 1.4 2.1 2.7 2.1z"/><path d="m64 6.3h-2.3v12h2.3c.1 0 .3-.1.3-.3v-11.4c0-.2-.2-.3-.3-.3z"/><path d="m63.7 48.8h-22.8c-.1 0-.3.1-.3.3v2.9h19.1c.4 0 .8.3.8.8 0 .4-.3.8-.8.8h-19v2.9c0 .1.1.3.3.3h22.8c.1 0 .3-.1.3-.3v-7.3c-.1-.3-.3-.4-.4-.4z"/><path d="m42.8 28.3-1.2-5h-1.9v3.7c0 .7.6 1.3 1.3 1.3z"/><path d="m44.9 44.5c-.7 0-1.3.6-1.3 1.3v1.5h17.4v-1.5c0-.7-.6-1.3-1.3-1.3z"/><path d="m57.3 43-4.5-19.7h-9.6l4.5 19.7z"/><path d="m24.6 21.4c.2.3.6.4.9.4h34.4c.1 0 .3-.1.3-.3v-18.3c0-.1-.1-.3-.3-.3h-34.4c-.3 0-.7.1-.9.4l-3.6 3.6c-.2.2-.4.6-.4.9v9c0 .3.1.7.4.9zm17.4-15.9h15.8c.4 0 .8.3.8.8 0 2.4-2 4.4-4.4 4.4h-8.6c-2.4 0-4.4-2-4.4-4.4.1-.4.4-.8.8-.8zm-5.4.8c0-.4.3-.8.8-.8.4 0 .8.3.8.8v5.8c0 .4-.3.8-.8.8-.4 0-.8-.3-.8-.8zm-4 0c0-.4.3-.8.8-.8.4 0 .8.3.8.8v5.8c0 .4-.3.8-.8.8-.4 0-.8-.3-.8-.8zm-4.1 0c0-.4.3-.8.8-.8.4 0 .8.3.8.8v5.8c0 .4-.3.8-.8.8-.4 0-.8-.3-.8-.8z"/><path d="m15.6 10.5v3.7c0 .1.1.3.3.3h3.3v-4.2h-3.3c-.2-.1-.3.1-.3.2z"/><path d="m10.7 37.8 2.2-3.4h-8l2.1 3.4c.1.1.1.3.1.4v.9l-.3-.1c-.4-.1-.8.1-.9.5s.1.8.5.9l.8.2v2.7l-.3-.1c-.4-.1-.8.1-.9.5s.1.8.5.9l.8.2v2.7l-.3-.1c-.6 0-1 .2-1.1.6-.2.4.1.8.5 1l.8.2v2.7l-.3-.1c-.4-.1-.8.1-.9.5s.1.8.5.9l.8.2v2.7l-.5-.1c-.4-.1-.8.1-.9.5s.1.8.5.9l.8.2v2.1l1.7 3.3 1.7-3.3v-1l.3.1h.2c.3 0 .6-.2.7-.5.1-.4-.1-.8-.5-.9l-.8-.2v-2.7l.3.1h.2c.3 0 .6-.2.7-.5.1-.4-.1-.8-.5-.9l-.6-.2v-2.7l.3.1h.2c.3 0 .6-.2.7-.5.1-.4-.1-.8-.5-.9l-.8-.2v-2.8l.3.1h.2c.3 0 .6-.2.7-.5.1-.4-.1-.8-.5-.9l-.8-.2v-2.7l.3.1h.2c.3 0 .6-.2.7-.5.1-.4-.1-.8-.5-.9l-.8-.2v-2c.3-.2.3-.4.4-.5z"/><path d="m4.2 29.6h9.3v3.4h-9.3z"/><path d="m26.5 37.8 2.2-3.4h-8l2.2 3.4c.1.1.1.3.1.4v.9l-.4-.1c-.4-.1-.8.1-.9.5s.1.8.5.9l.8.2v2.7l-.3-.1c-.4-.1-.8.1-.9.5s.1.8.5.9l.8.2v2.7l-.3-.1c-.4-.1-.8.1-.9.5s.1.8.5.9l.8.2v2.7l-.3-.1c-.4-.1-.8.1-.9.5s.1.8.5.9l.8.2v2.7l-.7.1c-.4-.1-.8.1-.9.5s.1.8.5.9l.8.2v2.1l1.7 3.3 1.7-3.3v-1l.3.1h.2c.3 0 .6-.2.7-.5.1-.4-.1-.8-.5-.9l-.8-.2v-2.7l.3.1h.2c.3 0 .6-.2.7-.5.1-.4-.1-.8-.5-.9l-.6-.2v-2.7l.3.1h.2c.3 0 .6-.2.7-.5.1-.4-.1-.8-.5-.9l-.8-.2v-2.8l.3.1h.2c.3 0 .6-.2.7-.5.1-.4-.1-.8-.5-.9l-.8-.2v-2.7l.3.1h.2c.3 0 .6-.2.7-.5.1-.4-.1-.8-.5-.9l-.8-.2v-2c.3-.2.3-.4.4-.5z"/><path d="m20 29.6h9.3v3.4h-9.3z"/>
    </g>
</svg>