<svg clip-rule="evenodd" fill-rule="evenodd" width="40" height="40" image-rendering="optimizeQuality" shape-rendering="geometricPrecision" text-rendering="geometricPrecision" viewBox="0 0 1707 1707" xmlns="http://www.w3.org/2000/svg"><g id="Layer_x0020_1"><path d="m423 1497h-388c-16 0-30-13-30-30v-115c0-17 14-30 30-30h388c17 0 30 13 30 30v115c0 17-13 30-30 30zm-358-60h328v-55h-328z" fill="#000000"/><path d="m423 1173h-388c-18 0-32-16-30-34l40-362c2-15 15-27 30-27h228c13 0 24 8 29 21l120 362c6 20-8 40-29 40zm-354-60h313l-101-303h-179z" fill="#000000"/><path d="m812 1173h-389c-20 0-35-20-28-40l120-362c4-13 15-21 28-21h228c15 0 28 12 30 27l41 366c0 16-14 30-30 30zm-347-60h313l-34-303h-179z" fill="#000000"/><path d="m811 1497h-388c-16 0-30-13-30-30v-115c0-17 14-30 30-30h388c17 0 30 13 30 30v115c0 17-13 30-30 30zm-358-60h328v-55h-328z" fill="#000000"/><path d="m771 495h-696c-16 0-30-13-30-30 0-173 118-324 286-366 39-10 53 48 15 58-132 33-227 145-239 278h633c-13-133-107-245-239-278-39-10-24-68 14-58 169 42 286 193 286 366 0 17-13 30-30 30z" fill="#000000"/><path d="m811 608h-776c-16 0-30-13-30-30v-113c0-16 14-30 30-30h776c17 0 30 14 30 30v113c0 17-13 30-30 30zm-746-60h716v-53h-716z" fill="#000000"/><path d="m492 371h-138c-16 0-29-12-30-28l-22-310c-2-18 12-32 30-32h183c17 0 31 14 30 32l-23 310c-1 16-14 28-30 28zm-110-60h82l19-250h-119z" fill="#000000"/><g fill="#000000"><path d="m1239 608h-284c-16 0-30-13-30-30v-180c0-16 14-30 30-30h284c16 0 30 14 30 30v180c0 17-14 30-30 30zm-254-60h224v-120h-224z"/><path d="m1671 608h-283c-17 0-30-13-30-30v-180c0-16 13-30 30-30h283c17 0 30 14 30 30v180c0 17-13 30-30 30zm-253-60h223v-120h-223z"/><path d="m955 428c-16 0-30-13-30-30v-302c0-8 3-16 9-21l69-66c28-27 70 16 41 43l-59 57v289c0 17-13 30-30 30z"/><path d="m1671 428c-16 0-30-13-30-30v-289l-59-57c-28-27 13-70 42-43l68 66c6 5 9 13 9 21v302c0 17-13 30-30 30z"/><path d="m1388 518h-149c-40 0-40-60 0-60h149c39 0 39 60 0 60z"/><path d="m423 1706h-388c-16 0-30-13-30-30v-533c0-17 14-30 30-30h388c17 0 30 13 30 30v533c0 17-13 30-30 30zm-358-60h328v-473h-328z"/><path d="m811 1706h-388c-16 0-30-13-30-30v-533c0-17 14-30 30-30h388c17 0 30 13 30 30v533c0 17-13 30-30 30zm-358-60h328v-473h-328z"/><path d="m1459 1706h-500c-17 0-30-13-30-30v-158c0-17 13-30 30-30h500c16 0 30 13 30 30v158c0 17-14 30-30 30zm-470-60h440v-98h-440z"/><path d="m1459 1548h-500c-17 0-30-14-30-30v-284c0-39 60-39 60 0v254h462l165-95c58-34 8-124-52-90l-90 52c-20 12-45-3-45-26v-95c0-39 60-39 60 0v43c44-25 77-51 130-37 96 26 112 155 27 204l-172 100c-5 2-10 4-15 4z"/><path d="m1125 1264c-16 0-30-13-30-30v-173c0-70-106-70-106 0v173c0 40-60 40-60 0v-173c0-63 51-113 113-113 63 0 113 50 113 113v173c0 17-13 30-30 30z"/><path d="m1292 1264c-16 0-30-13-30-30v-248c0-68-107-68-107 0v248c0 40-60 40-60 0v-248c0-62 51-112 114-112 62 0 113 50 113 112v248c0 17-13 30-30 30z"/><path d="m1459 1264c-17 0-30-13-30-30v-173c0-70-107-70-107 0v173c0 40-60 40-60 0v-173c0-63 51-113 113-113 63 0 114 50 114 113v173c0 17-14 30-30 30z"/></g></g></svg>