<svg id="Layer_1" viewBox="0 0 1000 1000" xmlns="http://www.w3.org/2000/svg" data-name="Layer 1"
width="44" height="44">
    <g fill="#000000">
        <path d="m407.18 782.48a10 10 0 0 1 -7-17.18l336.71-326.18c99.66-96.57 140.11-236.38 107.63-368.43l-581.07 563a10 10 0 0 1 -13.92-14.37l593.27-574.81a10 10 0 0 1 16.56 4.37c42.14 143.86.54 298.9-108.56 404.6l-336.66 326.18a10 10 0 0 1 -6.96 2.82z"/><path d="m743.51 636.48a10 10 0 0 1 -7-2.86l-92.77-89.88a10 10 0 0 1 13.92-14.37l92.81 89.92.11.11a10 10 0 0 1 -7.06 17.08z"/><path d="m592.81 782.47a9.93 9.93 0 0 1 -6.76-2.64l-.19-.17-92.86-89.93a10 10 0 0 1 14-14.37l92.78 89.9a10 10 0 0 1 -6.93 17.21z"/><path d="m349.32 546.56a10 10 0 0 1 -7-2.82l-93.17-90.26c-109.05-105.71-150.65-260.74-108.51-404.6a10 10 0 0 1 16.56-4.37l349.8 338.86a10 10 0 0 1 -14 14.37l-337.56-327c-32.48 132.05 8 271.86 107.63 368.43l93.17 90.25a10 10 0 0 1 -7 17.19z"/><path d="m499.86 549.16a10 10 0 0 1 -10-10v-5.76a10 10 0 0 1 20 0v5.76a10 10 0 0 1 -10 10z"/></g><path d="m366.08 665.86c-33.31-32.27-77.58-50.05-124.65-50.05-47.06 0-91.33 17.78-124.64 50.05s-51.79 75.4-51.79 121.2 18.39 88.85 51.79 121.2 77.58 50 124.64 50 91.34-17.77 124.65-50 51.79-75.4 51.79-121.2-18.4-88.84-51.79-121.2z" fill="#000000"/><path d="m883.21 665.86c-33.31-32.27-77.58-50.05-124.64-50.05-47.07 0-91.34 17.78-124.65 50.05s-51.79 75.4-51.79 121.2 18.4 88.85 51.79 121.2 77.58 50 124.65 50 91.33-17.77 124.64-50 51.79-75.4 51.79-121.2-18.39-88.84-51.79-121.2z" fill="#000000"/><path d="m241.43 883.37a100.37 100.37 0 0 1 -70-28 94.49 94.49 0 0 1 0-136.53c38.6-37.4 101.41-37.4 140 0a94.51 94.51 0 0 1 0 136.53 100.37 100.37 0 0 1 -70 28zm0-172.68a80.38 80.38 0 0 0 -56.08 22.47 74.48 74.48 0 0 0 0 107.8c30.92 30 81.24 30 112.17 0a74.5 74.5 0 0 0 0-107.8 80.39 80.39 0 0 0 -56.09-22.47z" fill="#000000"/><path d="m758.57 883.37a100.37 100.37 0 0 1 -70-28 94.51 94.51 0 0 1 0-136.53c38.6-37.4 101.41-37.4 140 0a94.49 94.49 0 0 1 0 136.53 100.37 100.37 0 0 1 -70 28zm0-172.68a80.39 80.39 0 0 0 -56.09 22.47 74.5 74.5 0 0 0 0 107.8c30.93 30 81.25 30 112.17 0a74.48 74.48 0 0 0 0-107.8 80.38 80.38 0 0 0 -56.08-22.47z" fill="#000000"/>
</svg>