<svg version="1.1" id="Layer_1" xmlns="http://www.w3.org/2000/svg" x="0px" y="0px"
	 viewBox="0 0 496.012 496.012" style="enable-background:new 0 0 496.012 496.012;" width="40" height="40">
<g>
	<g>
		<g>
			<path d="M232.012,352.006h-24.64c-2.952-20.512-17.024-37.424-35.92-44.448l-65.792-180.76l7.512-2.736L77.604,26.334
				C70.06,5.606,47.044-5.13,26.34,2.43c-10.048,3.648-18.064,11-22.576,20.68c-4.512,9.68-4.984,20.552-1.328,30.584l35.568,97.728
				l7.512-2.736l63.776,175.192c-6.632,7.832-11.112,17.504-12.64,28.128h-24.64c-39.704,0-72,32.304-72,72v72h304v-72
				C304.012,384.31,271.716,352.006,232.012,352.006z M192.012,360.006c0,22.056-17.944,40-40,40c-22.056,0-40-17.944-40-40
				c0-22.056,17.944-40,40-40C174.068,320.006,192.012,337.95,192.012,360.006z M36.9,101.63l-19.44-53.4
				c-2.192-6.032-1.904-12.552,0.808-18.36c2.704-5.808,7.52-10.216,13.544-12.408c2.704-0.984,5.464-1.448,8.176-1.448
				c9.816,0,19.04,6.056,22.584,15.792l19.28,52.968L36.9,101.63z M42.38,116.662l44.952-16.856l5.344,14.688l-4.944,1.8
				L47.564,130.91L42.38,116.662z M60.556,143.214l5.48-1.992l24.592-8.944l62.528,171.792c-0.384-0.016-0.76-0.064-1.144-0.064
				c-10.952,0-21.144,3.208-29.776,8.664L60.556,143.214z M48.012,480.006h-32v-56c0-30.88,25.128-56,56-56h24.64
				c0.816,5.648,2.464,11.024,4.84,16h-29.48c-22.056,0-40,17.944-40,40v16h16V480.006z M72.012,400.006H112.9
				c10.104,9.88,23.904,16,39.112,16s29.016-6.12,39.112-16h40.888c13.232,0,24,10.768,24,24h-208
				C48.012,410.774,58.78,400.006,72.012,400.006z M240.012,480.006h-176v-40h176V480.006z M288.012,480.006h-32v-40h16v-16
				c0-22.056-17.944-40-40-40h-29.48c2.376-4.976,4.032-10.352,4.84-16h24.64c30.872,0,56,25.12,56,56V480.006z"/>
			<path d="M128.012,360.006c0,13.232,10.768,24,24,24s24-10.768,24-24s-10.768-24-24-24S128.012,346.774,128.012,360.006z
				 M160.012,360.006c0,4.408-3.584,8-8,8s-8-3.592-8-8c0-4.408,3.584-8,8-8S160.012,355.598,160.012,360.006z"/>
			<path d="M496.012,208.006v-80H457.86c-2.496-8.16-5.768-16.04-9.736-23.544l26.96-26.968l-56.568-56.568l-26.96,26.968
				c-7.504-3.976-15.384-7.24-23.544-9.744V0.006h-80V38.15c-8.16,2.504-16.04,5.768-23.544,9.744l-26.96-26.968L180.94,77.494
				l26.96,26.968c-3.968,7.504-7.232,15.384-9.736,23.544h-38.152v80h38.152c2.496,8.16,5.768,16.04,9.736,23.544l-26.96,26.968
				l56.568,56.568l26.96-26.968c7.504,3.976,15.392,7.24,23.544,9.744v38.144h80v-38.144c8.16-2.504,16.04-5.768,23.544-9.744
				l26.96,26.968l56.568-56.568l-26.96-26.968c3.968-7.504,7.232-15.384,9.736-23.544H496.012z M452.468,258.51l-33.944,33.944
				l-24.312-24.32l-5.344,3.16c-9.6,5.664-19.976,9.968-30.848,12.768l-6.008,1.552v34.392h-48v-34.392l-6-1.544
				c-10.872-2.808-21.248-7.104-30.848-12.768l-5.344-3.16l-24.312,24.32l-33.944-33.944l24.312-24.312l-3.152-5.336
				c-5.664-9.6-9.96-19.976-12.768-30.856l-1.552-6.008h-34.392v-48h34.392l1.552-6c2.808-10.88,7.104-21.256,12.768-30.856
				l3.152-5.336l-24.312-24.312l33.944-33.944l24.312,24.32l5.344-3.16c9.6-5.664,19.976-9.968,30.848-12.768l6-1.552V16.006h48
				v34.392l6,1.544c10.872,2.808,21.248,7.104,30.848,12.768l5.344,3.16l24.312-24.32l33.944,33.944l-24.312,24.312l3.152,5.336
				c5.664,9.6,9.96,19.976,12.768,30.856l1.552,6.008h34.392v48H445.62l-1.552,6c-2.808,10.88-7.104,21.256-12.768,30.856
				l-3.152,5.336L452.468,258.51z"/>
			<path d="M328.012,96.006c-39.704,0-72,32.304-72,72s32.296,72,72,72c39.704,0,72-32.304,72-72S367.716,96.006,328.012,96.006z
				 M328.012,224.006c-30.872,0-56-25.12-56-56s25.128-56,56-56s56,25.12,56,56S358.884,224.006,328.012,224.006z"/>
			<path d="M241.228,153.334l-15.784-2.656c-0.944,5.68-1.432,11.504-1.432,17.328h16
				C240.012,163.07,240.42,158.134,241.228,153.334z"/>
			<path d="M245.012,138.67c12.408-35.088,45.76-58.664,83-58.664v-16c-44.008,0-83.424,27.864-98.08,69.328L245.012,138.67z"/>
			<rect x="320.012" y="32.006" width="16" height="16"/>
			<rect x="229.499" y="69.482" transform="matrix(0.707 0.7072 -0.7072 0.707 124.3814 -145.2595)" width="16" height="16"/>
			<rect x="192.012" y="160.006" width="16" height="16"/>
			<rect x="229.473" y="250.498" transform="matrix(-0.7071 -0.7071 0.7071 -0.7071 222.606 609.2015)" width="16" height="16"/>
			<rect x="320.012" y="288.006" width="16" height="16"/>
			<rect x="410.468" y="250.539" transform="matrix(-0.707 -0.7072 0.7072 -0.707 531.4866 737.2722)" width="16" height="16"/>
			<rect x="448.012" y="160.006" width="16" height="16"/>
			<rect x="410.471" y="69.528" transform="matrix(0.707 -0.7072 0.7072 0.707 67.7809 318.6599)" width="16" height="16"/>
		</g>
	</g>
</g>
<g>
</g>
<g>
</g>
<g>
</g>
<g>
</g>
<g>
</g>
<g>
</g>
<g>
</g>
<g>
</g>
<g>
</g>
<g>
</g>
<g>
</g>
<g>
</g>
<g>
</g>
<g>
</g>
<g>
</g>
</svg>
